<?xml version="1.0" encoding="utf-8"?>
<!-- Generator: Adobe Illustrator 19.1.0, SVG Export Plug-In . SVG Version: 6.00 Build 0)  -->
<svg version="1.1" id="Слой_1" xmlns="http://www.w3.org/2000/svg" xmlns:xlink="http://www.w3.org/1999/xlink" x="0px" y="0px"
	 viewBox="0 0 287 56.5" style="enable-background:new 0 0 287 56.5;" xml:space="preserve">
<style type="text/css">
	.st0{fill-rule:evenodd;clip-rule:evenodd;}
</style>
<g>
	<path class="st0" style="fill:#ffffff" d="M159.7,20.8c2.1-1.8,4.6-3.1,7.3-3.9c1.8-0.5,3.9-0.7,5.8-0.7c1.9,0,3.8,0.2,5.6,0.7
		c8.3,2.3,13.5,9.4,14.2,17.9c0.3,5.4-1.1,10.4-4.6,14.6c-3.8,4.6-9.3,6.9-15.2,6.9c-5.9,0-11.4-2.3-15.2-6.9
		c-2.5-3-3.9-6.3-4.5-10.1H126c-3.6,0-3.7-6.1-0.1-6.1h13.3c-1-5-4.3-8.9-9.4-10.2l0,0c-2.4-0.7-5.3-0.6-7.7,0.1
		c-5.7,1.5-9,6.3-9.4,12c-0.1,1.5,0,2.9,0.2,4.4c1,6.4,6.5,10.6,13,10.6c3.4,0,6.8-0.9,9.5-3c3.2-2.9,7.8,1,4.4,4.5
		c-3.6,3.4-8.8,4.7-13.6,4.6c-5.8,0-11.9-2.2-15.6-6.9c-8.4-11.1-4.4-28.5,9.6-32.4c3.7-1,7.8-1,11.5,0l0.1,0
		c7.9,2.2,12.9,8.2,14,16.2h7.3l0-23.9l-9.6-3c-3.8-1.2-2-7.6,1.9-6.4l12.2,3.7c1.3,0.4,2.2,1.4,2.2,2.8V20.8L159.7,20.8z M29.6,26
		c-2.5-2.9-6-4.3-9.9-4.3c-8.1,0-13,6.8-13,14.5c0,3.3,1,6.9,3.1,9.4c2.5,3,6.4,4.7,10.2,4.7c3.9,0,7.9-1.4,10.3-4.6
		c2.4-3.2,7.8,0.5,4.8,4c-3.7,4.5-9.4,6.8-15.2,6.8c-5.8,0-11.6-2.4-15.4-6.8C1.2,45.5-0.3,40,0,34.7c0.6-11.5,8.8-19.1,20.3-19.1
		c5.9,0,10.2,2.1,14.1,6.5C37.1,25.2,32.2,29.1,29.6,26L29.6,26z M70.2,20.7v-0.9c0-2,1.3-3.3,3.3-3.3c1.9,0,3.4,1.3,3.4,3.3v32.9
		c0,2-1.4,3.3-3.4,3.3c-2,0-3.3-1.3-3.3-3.3v-1.5c-2.7,3.3-7.3,5.3-11.4,5.3c-3.8,0-7.9-1.1-11-3.3c-6-4.1-8.8-10.8-8.6-17.9
		c0.2-7.7,4.5-14.8,11.8-17.7l0,0c2.5-1,5.4-1.4,8.1-1.4C63.3,16.3,67.4,17.5,70.2,20.7L70.2,20.7z M94.8,23.2v29.7
		c0,4.1-6.6,4.1-6.6,0V23.2h-3.4c-3.7,0-3.6-5.8,0.1-5.8h3.3v-1c0-9.9,11.8-14.6,19.2-8.8c3.1,2.7-1,7.2-3.9,4.7
		c-3-2.8-8.7-0.5-8.7,4.2v0.9h6.5c3.5,0,3.5,5.8,0,5.8H94.8L94.8,23.2z M205.6,8.3v3.3c0,4.2-6.8,4.2-6.8,0V8.3
		C198.8,4,205.6,4,205.6,8.3L205.6,8.3z M198.9,53V21.4c0-4,6.6-4.1,6.6-0.1V53C205.5,57.1,198.9,57,198.9,53L198.9,53z M228.9,34.2
		l14.9,16.4c3.1,3.7-2.4,7.6-5.2,4l-14.7-16.5l-3.7,3.3v11.3c0,4.2-6.6,4.3-6.6,0V8.3c0-3.9,6.6-3.9,6.6,0v25.4l4.1-4l13.4-12.6
		c3.5-3.1,8.1,1.4,4.7,4.6L228.9,34.2L228.9,34.2z M287,35.8c0.2,2.7-1.6,4.1-4.2,4.1h-28.6c1.3,6,6.6,9.9,12.8,9.9
		c3.4,0,6.8-0.9,9.5-3c3.2-2.9,7.8,1,4.4,4.5c-3.6,3.4-8.8,4.7-13.6,4.6c-5.8,0-11.9-2.2-15.6-6.9c-8.4-11.1-4.4-28.5,9.6-32.4
		c3.7-1,7.8-1,11.5,0l0.1,0C281.8,19.2,286.8,26.6,287,35.8L287,35.8z M159.9,39.2c0.4,2.2,1.4,4.4,2.8,6.1c2.5,3,6.2,4.7,10.1,4.7
		c3.8,0,7.7-1.8,10.2-4.7c2-2.4,3.1-5.8,3.1-8.8c0-6.2-3.2-12-9.4-13.6c-1.2-0.3-2.6-0.5-3.9-0.5c-1.2,0-2.6,0.2-3.8,0.5
		c-5,1.3-8.1,5.4-9.1,10.3h12.9c3.7,0,3.6,6.1,0,6.1H159.9L159.9,39.2z M46.8,30.1c-0.7,1.6-1,3.5-1.1,5.3c-0.2,4.8,1.5,9,5.2,12.1
		c2.1,1.6,4.7,2.5,7.3,2.7c6.7,0,11.6-4.1,11.9-11v-5.8c0-6.9-4.7-10.5-11.2-10.8C53.9,22.5,48.8,25.2,46.8,30.1L46.8,30.1z
		 M253.8,34.2h26.6c-0.7-5.5-4-10-9.5-11.4l0,0c-2.4-0.6-5.3-0.6-7.7,0.1C257.7,24.3,254.5,28.7,253.8,34.2L253.8,34.2z"/>
	<path class="st0" d="M293.7,35.9"/>
</g>
</svg>
